<?xml version="1.0" encoding="utf-8"?>
<svg version="1.1" xmlns:xlink="http://www.w3.org/1999/xlink" width="40px" height="29px" xmlns="http://www.w3.org/2000/svg">
  <g transform="matrix(1 0 0 1 3290 -2481 )">
    <path d="M 36.9308035714286 26.16796875  C 37.0721726190476 26.0375236742424  37.1428571428571 25.8830492424242  37 25.7045454545455  L 37 9.88636363636364  C 36.6666666666667 10.3806818181818  36.1532738095238 10.8338068181818  35.6026785714286 11.2457386363636  C 31.6145833333333 14.0743371212121  28.4449404761905 16.3948863636364  26.09375 18.2073863636364  C 25.3348214285714 18.797821969697  24.7172619047619 19.2578125  24.2410714285714 19.5873579545455  C 23.764880952381 19.9169034090909  23.1212797619048 20.2498816287879  22.3102678571429 20.5862926136364  C 21.499255952381 20.9227035984848  20.7366071428571 21.0909090909091  20.0223214285714 21.0909090909091  L 20 21.0909090909091  L 19.9776785714286 21.0909090909091  C 19.2633928571429 21.0909090909091  18.500744047619 20.9227035984848  17.6897321428571 20.5862926136364  C 16.8787202380952 20.2498816287879  16.235119047619 19.9169034090909  15.7589285714286 19.5873579545455  C 15.2827380952381 19.2578125  14.6651785714286 18.797821969697  13.90625 18.2073863636364  C 11.5550595238095 16.3948863636364  8.38541666666667 14.0743371212121  4.39732142857143 11.2457386363636  C 3.84672619047619 10.8338068181818  3.33333333333333 10.3806818181818  3 9.88636363636364  L 3 25.7045454545455  C 2.85714285714286 25.8830492424242  2.92782738095238 26.0375236742424  3.06919642857143 26.16796875  C 3.21056547619048 26.2984138257576  3.37797619047619 26.3636363636364  3.57142857142857 26  L 36.4285714285714 26  C 36.6220238095238 26.3636363636364  36.7894345238095 26.2984138257576  36.9308035714286 26.16796875  Z M 36.1049107142857 6.76598011363636  C 36.796875 5.77047821969697  37.1428571428571 4.86766098484848  37.1428571428571 4.05752840909091  L 37.1428571428571 3.83096590909091  L 37.1428571428571 3.55291193181818  C 37.1428571428571 3.55291193181818  37.1391369047619 3.46366003787878  37.1316964285714 3.28515625  C 37.124255952381 3.10665246212121  37.1019345238095 3.02083333333333  37.0647321428571 3.02769886363636  C 37.0275297619048 3.03456439393939  36.9866071428571 2.97277462121212  36.9419642857143 2.84232954545455  C 36.8973214285714 2.71188446969697  36.8303571428571 2.66039299242424  36.7410714285714 2.68785511363636  C 36.6517857142857 2.71531723484848  36.5476190476191 2.69815340909091  36.4285714285714 3  L 3.57142857142857 3  C 3.37797619047619 2.63636363636364  3.21056547619048 2.70158617424242  3.06919642857143 2.83203125  C 2.92782738095238 2.96247632575757  2.85714285714286 3.11695075757576  2.85714285714286 3.29545454545455  C 2.85714285714286 5.60227272727273  3.95089285714286 7.55208333333333  6.13839285714286 9.14488636363636  C 9.01041666666667 11.2320075757576  11.9940476190476 13.4083806818182  15.0892857142857 15.6740056818182  C 15.1785714285714 15.7426609848485  15.4389880952381 15.9451941287879  15.8705357142857 16.2816051136364  C 16.3020833333333 16.6180160984848  16.6443452380952 16.8754734848485  16.8973214285714 17.0539772727273  C 17.1502976190476 17.2324810606061  17.4813988095238 17.4487452651515  17.890625 17.7027698863636  C 18.2998511904762 17.9567945075758  18.6755952380952 18.1455965909091  19.0178571428571 18.2691761363636  C 19.360119047619 18.3927556818182  19.6800595238095 18.4545454545455  19.9776785714286 18.4545454545455  L 20 18.4545454545455  L 20.0223214285714 18.4545454545455  C 20.3199404761905 18.4545454545455  20.639880952381 18.3927556818182  20.9821428571429 18.2691761363636  C 21.3244047619048 18.1455965909091  21.7001488095238 17.9567945075758  22.109375 17.7027698863636  C 22.5186011904762 17.4487452651515  22.8497023809524 17.2324810606061  23.1026785714286 17.0539772727273  C 23.3556547619048 16.8754734848485  23.6979166666667 16.6180160984848  24.1294642857143 16.2816051136364  C 24.5610119047619 15.9451941287879  24.8214285714286 15.7426609848485  24.9107142857143 15.6740056818182  C 28.0059523809524 13.4083806818182  30.9895833333333 11.2320075757576  33.8616071428571 9.14488636363636  C 34.6651785714286 8.55445075757576  35.4129464285714 7.76148200757576  36.1049107142857 6.76598011363636  Z M 38.9508928571429 0.968039772727271  C 39.6502976190476 1.61339962121212  40 2.38920454545455  40 3.29545454545455  L 40 25.7045454545455  C 40 26.6107954545455  39.6502976190476 27.3866003787879  38.9508928571429 28.0319602272727  C 38.2514880952381 28.6773200757576  37.4107142857143 29  36.4285714285714 29  L 3.57142857142857 29  C 2.58928571428571 29  1.7485119047619 28.6773200757576  1.04910714285714 28.0319602272727  C 0.349702380952381 27.3866003787879  0 26.6107954545455  0 25.7045454545455  L 0 3.29545454545455  C 0 2.38920454545455  0.349702380952381 1.61339962121212  1.04910714285714 0.968039772727271  C 1.7485119047619 0.322679924242421  2.58928571428571 0  3.57142857142857 0  L 36.4285714285714 0  C 37.4107142857143 0  38.2514880952381 0.322679924242421  38.9508928571429 0.968039772727271  Z " fill-rule="nonzero" fill="#000000" stroke="none" transform="matrix(1 0 0 1 -3290 2481 )" />
  </g>
</svg>